<?xml version="1.0" encoding="UTF-8"?>
<!DOCTYPE svg PUBLIC "-//W3C//DTD SVG 1.1//EN" "http://www.w3.org/Graphics/SVG/1.1/DTD/svg11.dtd">
<svg xmlns="http://www.w3.org/2000/svg" version="1.1" width="500px" height="500px" style="shape-rendering:geometricPrecision; text-rendering:geometricPrecision; image-rendering:optimizeQuality; fill-rule:evenodd; clip-rule:evenodd" xmlns:xlink="http://www.w3.org/1999/xlink">
<g><path style="opacity:0.997" fill="#1d1d1d" d="M -0.5,135.5 C 162.167,135.333 324.834,135.5 487.5,136C 490.021,139.482 489.855,142.982 487,146.5C 443.417,213.997 400.084,281.664 357,349.5C 355.669,351.996 353.836,353.996 351.5,355.5C 312.85,356.173 274.183,356.839 235.5,357.5C 156.852,356.917 78.1853,356.584 -0.5,356.5C -0.5,282.833 -0.5,209.167 -0.5,135.5 Z M 294.5,177.5 C 293.338,189.65 289.004,200.483 281.5,210C 279.667,211.167 277.833,212.333 276,213.5C 270.125,209.486 263.625,207.152 256.5,206.5C 245.953,204.245 236.286,206.412 227.5,213C 225.859,214.129 224.859,215.629 224.5,217.5C 222.292,218.894 220.792,220.894 220,223.5C 216.676,234.257 215.676,245.257 217,256.5C 218.154,266.485 222.654,274.485 230.5,280.5C 239.079,286.987 248.412,288.487 258.5,285C 260.34,282.174 261.006,279.007 260.5,275.5C 261.33,266.009 261.83,256.342 262,246.5C 262.717,245.956 263.217,245.289 263.5,244.5C 272.763,242.326 282.096,241.993 291.5,243.5C 293.291,244.391 295.124,245.391 297,246.5C 297.497,248.81 297.663,251.143 297.5,253.5C 297.056,275.498 296.722,297.498 296.5,319.5C 296.608,321.514 295.942,323.18 294.5,324.5C 287.412,326.534 280.412,328.534 273.5,330.5C 273.167,330.5 272.833,330.5 272.5,330.5C 261.22,331.971 249.887,332.638 238.5,332.5C 238.167,332.5 237.833,332.5 237.5,332.5C 224.242,331.303 211.909,327.303 200.5,320.5C 180.359,305.226 169.359,284.892 167.5,259.5C 167.111,245.767 167.778,232.1 169.5,218.5C 180.716,180.315 206.382,160.982 246.5,160.5C 262.262,160.237 277.262,163.403 291.5,170C 294.041,171.848 295.041,174.348 294.5,177.5 Z M 142.5,185.5 C 143.331,188.659 144.331,191.659 145.5,194.5C 149.101,213.708 143.435,229.375 128.5,241.5C 123.445,243.179 123.445,244.512 128.5,245.5C 132.146,247.328 135.479,249.662 138.5,252.5C 142.269,255.934 145.269,259.934 147.5,264.5C 155.37,282.063 153.87,298.73 143,314.5C 138.877,318.464 134.377,321.797 129.5,324.5C 119.175,328.165 108.508,329.999 97.5,330C 79.1697,330.5 60.8364,330.667 42.5,330.5C 36.6778,330.176 33.1778,327.176 32,321.5C 31.0091,268.75 31.3424,216.084 33,163.5C 54.4271,162.34 75.9271,162.174 97.5,163C 116.739,162.619 131.739,170.119 142.5,185.5 Z M 329.5,282.5 C 345.074,281.739 354.074,289.073 356.5,304.5C 352.855,321.655 342.521,328.155 325.5,324C 310.702,314.156 308.702,302.156 319.5,288C 322.767,285.87 326.1,284.037 329.5,282.5 Z"/></g>
<g><path style="opacity:0.89" fill="#323232" d="M 145.5,185.5 C 144.761,185.369 144.094,185.536 143.5,186C 144.991,188.621 145.658,191.455 145.5,194.5C 144.331,191.659 143.331,188.659 142.5,185.5C 142.957,183.443 143.957,183.443 145.5,185.5 Z"/></g>
<g><path style="opacity:1" fill="#484848" d="M 96.5,204.5 C 97.604,206.389 98.9373,208.055 100.5,209.5C 100.5,210.5 100.5,211.5 100.5,212.5C 96.5,212.5 92.5,212.5 88.5,212.5C 89.0659,219.451 88.3993,226.118 86.5,232.5C 83.5448,233.159 80.5448,233.492 77.5,233.5C 77.5,222.5 77.5,211.5 77.5,200.5C 81.1817,200.335 84.8484,200.501 88.5,201C 91.6663,201.322 94.333,202.489 96.5,204.5 Z"/></g>
<g><path style="opacity:0.502" fill="#323232" d="M 96.5,204.5 C 98.9971,205.129 100.33,206.796 100.5,209.5C 98.9373,208.055 97.604,206.389 96.5,204.5 Z"/></g>
<g><path style="opacity:1" fill="#494949" d="M 294.5,177.5 C 301.593,177.926 305.26,181.593 305.5,188.5C 304.658,201.876 299.658,213.376 290.5,223C 286.308,225.295 282.641,224.628 279.5,221C 245.941,210.42 228.607,222.587 227.5,257.5C 227.044,265.508 228.711,273.008 232.5,280C 231.906,280.464 231.239,280.631 230.5,280.5C 222.654,274.485 218.154,266.485 217,256.5C 215.676,245.257 216.676,234.257 220,223.5C 220.792,220.894 222.292,218.894 224.5,217.5C 227.457,215.245 230.79,213.578 234.5,212.5C 236.529,213.629 236.863,213.129 235.5,211C 236.833,210 238.167,209 239.5,208C 245.112,206.869 250.779,206.369 256.5,206.5C 263.625,207.152 270.125,209.486 276,213.5C 277.833,212.333 279.667,211.167 281.5,210C 289.004,200.483 293.338,189.65 294.5,177.5 Z"/></g>
<g><path style="opacity:0.996" fill="#414141" d="M 256.5,206.5 C 250.779,206.369 245.112,206.869 239.5,208C 238.167,209 236.833,210 235.5,211C 236.863,213.129 236.529,213.629 234.5,212.5C 230.79,213.578 227.457,215.245 224.5,217.5C 224.859,215.629 225.859,214.129 227.5,213C 236.286,206.412 245.953,204.245 256.5,206.5 Z"/></g>
<g><path style="opacity:0.99" fill="#1c1c1c" d="M 100.5,209.5 C 105.038,222.649 100.372,230.315 86.5,232.5C 88.3993,226.118 89.0659,219.451 88.5,212.5C 92.5,212.5 96.5,212.5 100.5,212.5C 100.5,211.5 100.5,210.5 100.5,209.5 Z"/></g>
<g><path style="opacity:1" fill="#494949" d="M 145.5,185.5 C 158.953,201.607 161.12,219.274 152,238.5C 148.647,244.351 144.147,249.018 138.5,252.5C 135.479,249.662 132.146,247.328 128.5,245.5C 127.167,244.167 127.167,242.833 128.5,241.5C 143.435,229.375 149.101,213.708 145.5,194.5C 145.658,191.455 144.991,188.621 143.5,186C 144.094,185.536 144.761,185.369 145.5,185.5 Z"/></g>
<g><path style="opacity:0.672" fill="#101010" d="M 291.5,243.5 C 282.096,241.993 272.763,242.326 263.5,244.5C 268.05,242.483 272.883,241.15 278,240.5C 280.235,241.239 282.235,241.239 284,240.5C 286.48,241.812 288.98,242.812 291.5,243.5 Z"/></g>
<g><path style="opacity:0.597" fill="#2f2f2f" d="M 128.5,241.5 C 127.167,242.833 127.167,244.167 128.5,245.5C 123.445,244.512 123.445,243.179 128.5,241.5 Z"/></g>
<g><path style="opacity:0.3" fill="#101010" d="M 169.5,218.5 C 167.778,232.1 167.111,245.767 167.5,259.5C 166.342,249.675 166.175,239.675 167,229.5C 167.108,225.535 167.941,221.868 169.5,218.5 Z"/></g>
<g><path style="opacity:1" fill="#4a4a4a" d="M 298.5,253.5 C 302.025,254.162 305.192,255.495 308,257.5C 308.259,283.176 307.759,308.843 306.5,334.5C 290.259,341.485 273.259,344.485 255.5,343.5C 242.677,344.589 230.677,342.256 219.5,336.5C 218.722,334.775 218.389,333.109 218.5,331.5C 220.837,330.488 223.17,330.655 225.5,332C 224.66,333.666 225.16,333.833 227,332.5C 228,333.5 229,334.5 230,335.5C 230.617,334.551 230.451,333.718 229.5,333C 232.319,333.492 234.986,333.326 237.5,332.5C 237.833,332.5 238.167,332.5 238.5,332.5C 249.244,333.176 259.578,333.509 269.5,333.5C 270.696,333.154 270.696,332.654 269.5,332C 270.737,331.768 271.737,331.268 272.5,330.5C 272.833,330.5 273.167,330.5 273.5,330.5C 276.482,330.173 279.315,330.173 282,330.5C 283.079,328.606 284.413,328.273 286,329.5C 289.104,328.197 291.937,326.53 294.5,324.5C 295.942,323.18 296.608,321.514 296.5,319.5C 298.005,297.684 298.671,275.684 298.5,253.5 Z"/></g>
<g><path style="opacity:0.191" fill="#0b0b0b" d="M 263.5,244.5 C 263.217,245.289 262.717,245.956 262,246.5C 261.83,256.342 261.33,266.009 260.5,275.5C 260.334,265.494 260.5,255.494 261,245.5C 261.671,244.748 262.504,244.414 263.5,244.5 Z"/></g>
<g><path style="opacity:1" fill="#484848" d="M 100.5,268.5 C 100.5,269.833 100.5,271.167 100.5,272.5C 96.5,272.5 92.5,272.5 88.5,272.5C 88.7934,279.255 88.4601,285.922 87.5,292.5C 84.1667,292.5 80.8333,292.5 77.5,292.5C 77.5,281.833 77.5,271.167 77.5,260.5C 84.0103,260.07 90.3436,260.903 96.5,263C 98.4641,264.451 99.7974,266.284 100.5,268.5 Z"/></g>
<g><path style="opacity:0.995" fill="#1c1c1c" d="M 100.5,268.5 C 103.131,274.425 102.965,280.425 100,286.5C 96.5476,289.976 92.3809,291.976 87.5,292.5C 88.4601,285.922 88.7934,279.255 88.5,272.5C 92.5,272.5 96.5,272.5 100.5,272.5C 100.5,271.167 100.5,269.833 100.5,268.5 Z"/></g>
<g><path style="opacity:0.182" fill="#3b3b3b" d="M 297.5,253.5 C 297.833,253.5 298.167,253.5 298.5,253.5C 298.671,275.684 298.005,297.684 296.5,319.5C 296.722,297.498 297.056,275.498 297.5,253.5 Z"/></g>
<g><path style="opacity:1" fill="#4a4a4a" d="M 42.5,331.5 C 63.5026,331.667 84.5026,331.5 105.5,331C 111.258,330.515 116.925,329.515 122.5,328C 125.281,327.478 127.615,326.311 129.5,324.5C 134.377,321.797 138.877,318.464 143,314.5C 153.87,298.73 155.37,282.063 147.5,264.5C 148.222,264.082 148.722,263.416 149,262.5C 161.837,275.695 166.171,291.362 162,309.5C 156.823,326.67 145.323,336.837 127.5,340C 100.862,341.592 74.195,341.926 47.5,341C 43.8642,338.961 42.1975,335.794 42.5,331.5 Z"/></g>
<g><path style="opacity:0.901" fill="#3d3d3d" d="M 294.5,324.5 C 291.937,326.53 289.104,328.197 286,329.5C 284.413,328.273 283.079,328.606 282,330.5C 279.315,330.173 276.482,330.173 273.5,330.5C 280.412,328.534 287.412,326.534 294.5,324.5 Z"/></g>
<g><path style="opacity:0.894" fill="#353535" d="M 129.5,324.5 C 127.615,326.311 125.281,327.478 122.5,328C 116.925,329.515 111.258,330.515 105.5,331C 84.5026,331.5 63.5026,331.667 42.5,331.5C 42.5,331.167 42.5,330.833 42.5,330.5C 60.8364,330.667 79.1697,330.5 97.5,330C 108.508,329.999 119.175,328.165 129.5,324.5 Z"/></g>
<g><path style="opacity:1" fill="#444444" d="M 200.5,320.5 C 211.909,327.303 224.242,331.303 237.5,332.5C 234.986,333.326 232.319,333.492 229.5,333C 230.451,333.718 230.617,334.551 230,335.5C 229,334.5 228,333.5 227,332.5C 225.16,333.833 224.66,333.666 225.5,332C 223.17,330.655 220.837,330.488 218.5,331.5C 218.389,333.109 218.722,334.775 219.5,336.5C 211.659,332.657 204.659,327.657 198.5,321.5C 198.957,320.702 199.624,320.369 200.5,320.5 Z"/></g>
<g><path style="opacity:0.606" fill="#3c3c3c" d="M 272.5,330.5 C 271.737,331.268 270.737,331.768 269.5,332C 270.696,332.654 270.696,333.154 269.5,333.5C 259.578,333.509 249.244,333.176 238.5,332.5C 249.887,332.638 261.22,331.971 272.5,330.5 Z"/></g>
<g><path style="opacity:0.055" fill="#141414" d="M 351.5,355.5 C 350.158,356.793 348.491,357.626 346.5,358C 230.834,358.5 115.167,358.667 -0.5,358.5C -0.5,357.833 -0.5,357.167 -0.5,356.5C 78.1853,356.584 156.852,356.917 235.5,357.5C 274.183,356.839 312.85,356.173 351.5,355.5 Z"/></g>
</svg>
